<svg width="120" height="120" viewBox="0 0 48 48" fill="none" xmlns="http://www.w3.org/2000/svg">
<defs>
  <linearGradient id="logoGrad" x1="0" y1="0" x2="0" y2="1">
    <stop offset="0%" stop-color="#FFFFFF"/>
    <stop offset="100%" stop-color="#888888"/>
  </linearGradient>
</defs>
<path d="M12.7131 37.043C11.4933 37.9765 10.2016 38.7357 8.71635 39.1234C8.38354 39.2102 8.04866 39.2834 7.70342 39.2916C7.62122 39.2935 7.52773 39.3135 7.45722 39.204C7.58295 38.9721 7.77635 38.7775 7.93989 38.5634C9.38969 36.6659 10.6379 34.6413 11.7607 32.5367C13.3144 29.6244 14.603 26.5951 15.7426 23.5005C16.5543 21.2962 17.3458 19.0844 18.1729 16.886C18.7432 15.3702 19.4396 13.9143 20.3786 12.583C21.986 10.3041 24.2085 9.12005 26.9532 8.83912C27.8968 8.74254 28.8373 8.76055 29.7791 8.84502C29.8298 8.84957 29.8926 8.8352 29.9151 8.90542C29.9023 8.97856 29.8365 8.97612 29.789 8.99025C28.1673 9.47263 26.9249 10.4791 25.9093 11.7979C24.9918 12.9894 24.3329 14.3252 23.7507 15.7018C22.5705 18.4925 21.6097 21.3662 20.5493 24.2022C19.6214 26.6834 18.6287 29.1348 17.3331 31.4517C16.3984 33.1231 15.291 34.6664 13.9099 36.0032C13.5335 36.3675 13.1332 36.7039 12.7131 37.043Z" fill="url(#logoGrad)"/>
<path d="M37.7627 11.3125C36.352 11.1318 35.1342 11.5414 34.0611 12.4115C33.328 13.006 32.7922 13.7635 32.3498 14.5893C31.6508 15.894 31.1475 17.2822 30.6279 18.6627C29.762 20.9636 28.9937 23.3005 28.0922 25.5881C27.5452 26.976 26.957 28.3457 26.1252 29.596C24.7256 31.6999 22.7934 33.0441 20.3531 33.6741C19.8757 33.7974 19.3918 33.879 18.9035 33.9352C18.7778 33.9497 18.6393 33.9807 18.5269 33.8861C18.5218 33.8169 18.5622 33.7783 18.5981 33.7374C19.8228 32.3461 20.7111 30.744 21.5081 29.0854C22.7107 26.583 23.6256 23.9672 24.5557 21.3569C25.2839 19.3133 25.9874 17.2593 26.854 15.2685C27.4421 13.9176 28.1426 12.6276 29.1501 11.5335C30.0511 10.5551 31.107 9.81371 32.4221 9.49935C33.8739 9.15232 35.221 9.47371 36.5087 10.157C37.0622 10.4507 37.5818 10.7957 38.0724 11.1848C38.1252 11.2266 38.1848 11.266 38.1987 11.356C38.0463 11.4005 37.9173 11.3249 37.7627 11.3125Z" fill="url(#logoGrad)"/>
<path d="M42.6454 14.5097C41.498 14.3701 40.5075 14.6866 39.6348 15.3588C39.0385 15.8181 38.6028 16.4032 38.2429 17.0413C37.6744 18.0492 37.265 19.1217 36.8425 20.1882C36.1382 21.9658 35.5133 23.7712 34.7801 25.5385C34.3352 26.6107 33.8568 27.6689 33.1803 28.6349C32.0419 30.2603 30.4704 31.2987 28.4857 31.7854C28.0974 31.8806 27.7038 31.9437 27.3066 31.9872C27.2044 31.9984 27.0918 32.0223 27.0004 31.9492C26.9962 31.8958 27.029 31.8659 27.0583 31.8344C28.0544 30.7595 28.7768 29.5217 29.4251 28.2404C30.4031 26.3071 31.1473 24.2862 31.9038 22.2697C32.496 20.6908 33.0682 19.104 33.7731 17.566C34.2514 16.5223 34.821 15.5257 35.6405 14.6805C36.3734 13.9246 37.2321 13.3518 38.3017 13.109C39.4825 12.8409 40.5782 13.0892 41.6255 13.617C42.0756 13.8439 42.4982 14.1105 42.8973 14.411C42.9402 14.4434 42.9887 14.4738 43 14.5433C42.8761 14.5777 42.7712 14.5193 42.6454 14.5097Z" fill="url(#logoGrad)"/>
</svg>
